<?xml version="1.0" encoding="UTF-8" ?>
<svg version="1.1" width="453" height="193" xmlns="http://www.w3.org/2000/svg" shape-rendering="crispEdges">
<rect x="0" y="0" width="1" height="2" fill="#DA291C" />
<rect x="74" y="0" width="64" height="18" fill="#DA291C" />
<rect x="154" y="0" width="64" height="23" fill="#DA291C" />
<rect x="234" y="0" width="64" height="18" fill="#DA291C" />
<rect x="314" y="0" width="64" height="18" fill="#DA291C" />
<rect x="451" y="0" width="2" height="2" fill="#DA291C" />
<rect x="74" y="18" width="22" height="84" fill="#DA291C" />
<rect x="115" y="18" width="23" height="37" fill="#DA291C" />
<rect x="234" y="18" width="22" height="84" fill="#DA291C" />
<rect x="275" y="18" width="23" height="84" fill="#DA291C" />
<rect x="314" y="18" width="18" height="43" fill="#DA291C" />
<rect x="360" y="18" width="18" height="8" fill="#DA291C" />
<rect x="154" y="23" width="23" height="79" fill="#DA291C" />
<rect x="195" y="23" width="23" height="14" fill="#DA291C" />
<rect x="96" y="37" width="19" height="18" fill="#DA291C" />
<rect x="332" y="41" width="46" height="20" fill="#DA291C" />
<rect x="103" y="55" width="22" height="47" fill="#DA291C" />
<rect x="360" y="61" width="18" height="41" fill="#DA291C" />
<rect x="195" y="66" width="23" height="36" fill="#DA291C" />
<rect x="314" y="76" width="18" height="26" fill="#DA291C" />
<rect x="177" y="79" width="18" height="23" fill="#DA291C" />
<rect x="125" y="80" width="13" height="22" fill="#DA291C" />
<rect x="256" y="84" width="19" height="18" fill="#DA291C" />
<rect x="332" y="84" width="28" height="18" fill="#DA291C" />
<rect x="33" y="112" width="386" height="2" fill="#DA291C" />
<rect x="30" y="113" width="3" height="2" fill="#DA291C" />
<rect x="419" y="113" width="4" height="2" fill="#DA291C" />
<rect x="27" y="114" width="3" height="2" fill="#DA291C" />
<rect x="33" y="114" width="2" height="1" fill="#DA291C" />
<rect x="418" y="114" width="1" height="1" fill="#DA291C" />
<rect x="423" y="114" width="3" height="2" fill="#DA291C" />
<rect x="24" y="115" width="3" height="2" fill="#DA291C" />
<rect x="30" y="115" width="1" height="1" fill="#DA291C" />
<rect x="422" y="115" width="1" height="1" fill="#DA291C" />
<rect x="426" y="115" width="3" height="2" fill="#DA291C" />
<rect x="22" y="116" width="2" height="2" fill="#DA291C" />
<rect x="27" y="116" width="1" height="1" fill="#DA291C" />
<rect x="425" y="116" width="1" height="1" fill="#DA291C" />
<rect x="429" y="116" width="2" height="2" fill="#DA291C" />
<rect x="20" y="117" width="2" height="2" fill="#DA291C" />
<rect x="24" y="117" width="1" height="1" fill="#DA291C" />
<rect x="428" y="117" width="1" height="1" fill="#DA291C" />
<rect x="431" y="117" width="2" height="2" fill="#DA291C" />
<rect x="19" y="118" width="1" height="3" fill="#DA291C" />
<rect x="22" y="118" width="1" height="1" fill="#DA291C" />
<rect x="430" y="118" width="1" height="1" fill="#DA291C" />
<rect x="433" y="118" width="1" height="3" fill="#DA291C" />
<rect x="17" y="119" width="2" height="2" fill="#DA291C" />
<rect x="20" y="119" width="1" height="1" fill="#DA291C" />
<rect x="432" y="119" width="1" height="1" fill="#DA291C" />
<rect x="434" y="119" width="2" height="2" fill="#DA291C" />
<rect x="16" y="120" width="1" height="3" fill="#DA291C" />
<rect x="39" y="120" width="48" height="14" fill="#DA291C" />
<rect x="96" y="120" width="46" height="16" fill="#DA291C" />
<rect x="170" y="120" width="16" height="33" fill="#DA291C" />
<rect x="202" y="120" width="16" height="33" fill="#DA291C" />
<rect x="224" y="120" width="46" height="16" fill="#DA291C" />
<rect x="276" y="120" width="44" height="15" fill="#DA291C" />
<rect x="327" y="120" width="39" height="11" fill="#DA291C" />
<rect x="372" y="120" width="42" height="12" fill="#DA291C" />
<rect x="436" y="120" width="1" height="3" fill="#DA291C" />
<rect x="15" y="121" width="1" height="3" fill="#DA291C" />
<rect x="17" y="121" width="1" height="1" fill="#DA291C" />
<rect x="435" y="121" width="1" height="1" fill="#DA291C" />
<rect x="437" y="121" width="1" height="3" fill="#DA291C" />
<rect x="13" y="122" width="2" height="2" fill="#DA291C" />
<rect x="438" y="122" width="2" height="2" fill="#DA291C" />
<rect x="12" y="123" width="1" height="3" fill="#DA291C" />
<rect x="440" y="123" width="1" height="3" fill="#DA291C" />
<rect x="11" y="124" width="1" height="4" fill="#DA291C" />
<rect x="13" y="124" width="1" height="1" fill="#DA291C" />
<rect x="439" y="124" width="1" height="1" fill="#DA291C" />
<rect x="441" y="124" width="1" height="4" fill="#DA291C" />
<rect x="10" y="125" width="1" height="4" fill="#DA291C" />
<rect x="442" y="125" width="1" height="4" fill="#DA291C" />
<rect x="9" y="127" width="1" height="3" fill="#DA291C" />
<rect x="443" y="127" width="1" height="3" fill="#DA291C" />
<rect x="8" y="128" width="1" height="4" fill="#DA291C" />
<rect x="444" y="128" width="1" height="4" fill="#DA291C" />
<rect x="7" y="129" width="1" height="4" fill="#DA291C" />
<rect x="445" y="129" width="1" height="4" fill="#DA291C" />
<rect x="6" y="131" width="1" height="4" fill="#DA291C" />
<rect x="327" y="131" width="14" height="53" fill="#DA291C" />
<rect x="352" y="131" width="14" height="23" fill="#DA291C" />
<rect x="446" y="131" width="1" height="4" fill="#DA291C" />
<rect x="5" y="132" width="1" height="5" fill="#DA291C" />
<rect x="372" y="132" width="13" height="26" fill="#DA291C" />
<rect x="401" y="132" width="13" height="5" fill="#DA291C" />
<rect x="447" y="132" width="1" height="5" fill="#DA291C" />
<rect x="4" y="134" width="1" height="6" fill="#DA291C" />
<rect x="39" y="134" width="17" height="12" fill="#DA291C" />
<rect x="70" y="134" width="17" height="32" fill="#DA291C" />
<rect x="448" y="134" width="1" height="6" fill="#DA291C" />
<rect x="276" y="135" width="16" height="49" fill="#DA291C" />
<rect x="304" y="135" width="16" height="49" fill="#DA291C" />
<rect x="3" y="136" width="1" height="7" fill="#DA291C" />
<rect x="96" y="136" width="16" height="48" fill="#DA291C" />
<rect x="126" y="136" width="16" height="48" fill="#DA291C" />
<rect x="224" y="136" width="16" height="48" fill="#DA291C" />
<rect x="449" y="136" width="1" height="7" fill="#DA291C" />
<rect x="186" y="137" width="16" height="47" fill="#DA291C" />
<rect x="2" y="139" width="1" height="8" fill="#DA291C" />
<rect x="450" y="139" width="1" height="8" fill="#DA291C" />
<rect x="1" y="142" width="1" height="21" fill="#DA291C" />
<rect x="341" y="142" width="11" height="12" fill="#DA291C" />
<rect x="451" y="142" width="1" height="21" fill="#DA291C" />
<rect x="240" y="144" width="30" height="16" fill="#DA291C" />
<rect x="385" y="145" width="29" height="13" fill="#DA291C" />
<rect x="0" y="146" width="1" height="13" fill="#DA291C" />
<rect x="452" y="146" width="1" height="13" fill="#DA291C" />
<rect x="39" y="152" width="31" height="14" fill="#DA291C" />
<rect x="345" y="154" width="14" height="30" fill="#DA291C" />
<rect x="292" y="157" width="12" height="15" fill="#DA291C" />
<rect x="2" y="158" width="1" height="8" fill="#DA291C" />
<rect x="402" y="158" width="12" height="26" fill="#DA291C" />
<rect x="450" y="158" width="1" height="8" fill="#DA291C" />
<rect x="3" y="162" width="1" height="7" fill="#DA291C" />
<rect x="449" y="162" width="1" height="7" fill="#DA291C" />
<rect x="4" y="165" width="1" height="6" fill="#DA291C" />
<rect x="448" y="165" width="1" height="6" fill="#DA291C" />
<rect x="39" y="166" width="17" height="19" fill="#DA291C" />
<rect x="372" y="167" width="13" height="17" fill="#DA291C" />
<rect x="5" y="168" width="1" height="5" fill="#DA291C" />
<rect x="112" y="168" width="14" height="16" fill="#DA291C" />
<rect x="240" y="168" width="30" height="16" fill="#DA291C" />
<rect x="447" y="168" width="1" height="5" fill="#DA291C" />
<rect x="6" y="170" width="1" height="4" fill="#DA291C" />
<rect x="359" y="170" width="7" height="14" fill="#DA291C" />
<rect x="446" y="170" width="1" height="4" fill="#DA291C" />
<rect x="56" y="171" width="31" height="14" fill="#DA291C" />
<rect x="7" y="172" width="1" height="4" fill="#DA291C" />
<rect x="385" y="172" width="17" height="12" fill="#DA291C" />
<rect x="445" y="172" width="1" height="4" fill="#DA291C" />
<rect x="8" y="173" width="1" height="4" fill="#DA291C" />
<rect x="444" y="173" width="1" height="4" fill="#DA291C" />
<rect x="9" y="175" width="1" height="3" fill="#DA291C" />
<rect x="443" y="175" width="1" height="3" fill="#DA291C" />
<rect x="10" y="176" width="1" height="4" fill="#DA291C" />
<rect x="442" y="176" width="1" height="4" fill="#DA291C" />
<rect x="11" y="177" width="1" height="4" fill="#DA291C" />
<rect x="441" y="177" width="1" height="4" fill="#DA291C" />
<rect x="12" y="179" width="1" height="3" fill="#DA291C" />
<rect x="440" y="179" width="1" height="3" fill="#DA291C" />
<rect x="13" y="180" width="1" height="3" fill="#DA291C" />
<rect x="439" y="180" width="1" height="3" fill="#DA291C" />
<rect x="14" y="181" width="2" height="2" fill="#DA291C" />
<rect x="437" y="181" width="2" height="2" fill="#DA291C" />
<rect x="16" y="182" width="1" height="3" fill="#DA291C" />
<rect x="436" y="182" width="1" height="3" fill="#DA291C" />
<rect x="15" y="183" width="1" height="1" fill="#DA291C" />
<rect x="17" y="183" width="1" height="3" fill="#DA291C" />
<rect x="435" y="183" width="1" height="3" fill="#DA291C" />
<rect x="437" y="183" width="1" height="1" fill="#DA291C" />
<rect x="18" y="184" width="2" height="2" fill="#DA291C" />
<rect x="433" y="184" width="2" height="2" fill="#DA291C" />
<rect x="20" y="185" width="1" height="3" fill="#DA291C" />
<rect x="432" y="185" width="1" height="3" fill="#DA291C" />
<rect x="19" y="186" width="1" height="1" fill="#DA291C" />
<rect x="21" y="186" width="2" height="2" fill="#DA291C" />
<rect x="430" y="186" width="2" height="2" fill="#DA291C" />
<rect x="433" y="186" width="1" height="1" fill="#DA291C" />
<rect x="23" y="187" width="2" height="2" fill="#DA291C" />
<rect x="428" y="187" width="2" height="2" fill="#DA291C" />
<rect x="22" y="188" width="1" height="1" fill="#DA291C" />
<rect x="25" y="188" width="3" height="2" fill="#DA291C" />
<rect x="425" y="188" width="3" height="2" fill="#DA291C" />
<rect x="430" y="188" width="1" height="1" fill="#DA291C" />
<rect x="24" y="189" width="1" height="1" fill="#DA291C" />
<rect x="28" y="189" width="3" height="2" fill="#DA291C" />
<rect x="422" y="189" width="3" height="2" fill="#DA291C" />
<rect x="428" y="189" width="1" height="1" fill="#DA291C" />
<rect x="27" y="190" width="1" height="1" fill="#DA291C" />
<rect x="31" y="190" width="4" height="2" fill="#DA291C" />
<rect x="418" y="190" width="4" height="2" fill="#DA291C" />
<rect x="425" y="190" width="1" height="1" fill="#DA291C" />
<rect x="30" y="191" width="1" height="1" fill="#DA291C" />
<rect x="35" y="191" width="383" height="2" fill="#DA291C" />
<rect x="422" y="191" width="1" height="1" fill="#DA291C" />
<rect x="33" y="192" width="2" height="1" fill="#DA291C" />
<rect x="418" y="192" width="1" height="1" fill="#DA291C" />
</svg>