<?xml version="1.0" encoding="UTF-8" ?>
<svg version="1.1" width="453" height="193" xmlns="http://www.w3.org/2000/svg" shape-rendering="crispEdges">
<rect x="74" y="0" width="64" height="2" fill="#DA291C" />
<rect x="154" y="0" width="64" height="2" fill="#DA291C" />
<rect x="234" y="0" width="64" height="2" fill="#DA291C" />
<rect x="314" y="0" width="64" height="2" fill="#DA291C" />
<rect x="74" y="2" width="2" height="100" fill="#DA291C" />
<rect x="136" y="2" width="2" height="53" fill="#DA291C" />
<rect x="154" y="2" width="2" height="100" fill="#DA291C" />
<rect x="216" y="2" width="2" height="35" fill="#DA291C" />
<rect x="234" y="2" width="2" height="100" fill="#DA291C" />
<rect x="296" y="2" width="2" height="100" fill="#DA291C" />
<rect x="314" y="2" width="2" height="59" fill="#DA291C" />
<rect x="376" y="2" width="2" height="24" fill="#DA291C" />
<rect x="94" y="16" width="23" height="2" fill="#DA291C" />
<rect x="254" y="16" width="23" height="2" fill="#DA291C" />
<rect x="330" y="16" width="32" height="2" fill="#DA291C" />
<rect x="94" y="18" width="2" height="21" fill="#DA291C" />
<rect x="115" y="18" width="2" height="21" fill="#DA291C" />
<rect x="254" y="18" width="2" height="68" fill="#DA291C" />
<rect x="275" y="18" width="2" height="68" fill="#DA291C" />
<rect x="330" y="18" width="2" height="25" fill="#DA291C" />
<rect x="360" y="18" width="2" height="8" fill="#DA291C" />
<rect x="175" y="21" width="22" height="2" fill="#DA291C" />
<rect x="175" y="23" width="2" height="58" fill="#DA291C" />
<rect x="195" y="23" width="2" height="14" fill="#DA291C" />
<rect x="362" y="24" width="14" height="2" fill="#DA291C" />
<rect x="197" y="35" width="19" height="2" fill="#DA291C" />
<rect x="96" y="37" width="19" height="2" fill="#DA291C" />
<rect x="332" y="41" width="46" height="2" fill="#DA291C" />
<rect x="376" y="43" width="2" height="59" fill="#DA291C" />
<rect x="94" y="53" width="11" height="2" fill="#DA291C" />
<rect x="123" y="53" width="13" height="2" fill="#DA291C" />
<rect x="94" y="55" width="2" height="47" fill="#DA291C" />
<rect x="103" y="55" width="2" height="47" fill="#DA291C" />
<rect x="123" y="55" width="2" height="27" fill="#DA291C" />
<rect x="316" y="59" width="46" height="2" fill="#DA291C" />
<rect x="360" y="61" width="2" height="25" fill="#DA291C" />
<rect x="195" y="66" width="23" height="2" fill="#DA291C" />
<rect x="195" y="68" width="2" height="13" fill="#DA291C" />
<rect x="216" y="68" width="2" height="34" fill="#DA291C" />
<rect x="314" y="76" width="18" height="2" fill="#DA291C" />
<rect x="314" y="78" width="2" height="24" fill="#DA291C" />
<rect x="330" y="78" width="2" height="8" fill="#DA291C" />
<rect x="177" y="79" width="18" height="2" fill="#DA291C" />
<rect x="125" y="80" width="13" height="2" fill="#DA291C" />
<rect x="136" y="82" width="2" height="20" fill="#DA291C" />
<rect x="256" y="84" width="19" height="2" fill="#DA291C" />
<rect x="332" y="84" width="28" height="2" fill="#DA291C" />
<rect x="76" y="100" width="18" height="2" fill="#DA291C" />
<rect x="105" y="100" width="31" height="2" fill="#DA291C" />
<rect x="156" y="100" width="60" height="2" fill="#DA291C" />
<rect x="236" y="100" width="60" height="2" fill="#DA291C" />
<rect x="316" y="100" width="60" height="2" fill="#DA291C" />
<rect x="33" y="112" width="386" height="2" fill="#DA291C" />
<rect x="30" y="113" width="3" height="2" fill="#DA291C" />
<rect x="419" y="113" width="4" height="2" fill="#DA291C" />
<rect x="27" y="114" width="3" height="2" fill="#DA291C" />
<rect x="33" y="114" width="2" height="1" fill="#DA291C" />
<rect x="418" y="114" width="1" height="1" fill="#DA291C" />
<rect x="423" y="114" width="3" height="2" fill="#DA291C" />
<rect x="24" y="115" width="3" height="2" fill="#DA291C" />
<rect x="30" y="115" width="1" height="1" fill="#DA291C" />
<rect x="422" y="115" width="1" height="1" fill="#DA291C" />
<rect x="426" y="115" width="3" height="2" fill="#DA291C" />
<rect x="22" y="116" width="2" height="2" fill="#DA291C" />
<rect x="27" y="116" width="1" height="1" fill="#DA291C" />
<rect x="425" y="116" width="1" height="1" fill="#DA291C" />
<rect x="429" y="116" width="2" height="2" fill="#DA291C" />
<rect x="20" y="117" width="2" height="2" fill="#DA291C" />
<rect x="24" y="117" width="1" height="1" fill="#DA291C" />
<rect x="428" y="117" width="1" height="1" fill="#DA291C" />
<rect x="431" y="117" width="2" height="2" fill="#DA291C" />
<rect x="19" y="118" width="1" height="3" fill="#DA291C" />
<rect x="22" y="118" width="1" height="1" fill="#DA291C" />
<rect x="430" y="118" width="1" height="1" fill="#DA291C" />
<rect x="433" y="118" width="1" height="3" fill="#DA291C" />
<rect x="17" y="119" width="2" height="2" fill="#DA291C" />
<rect x="20" y="119" width="1" height="1" fill="#DA291C" />
<rect x="432" y="119" width="1" height="1" fill="#DA291C" />
<rect x="434" y="119" width="2" height="2" fill="#DA291C" />
<rect x="16" y="120" width="1" height="3" fill="#DA291C" />
<rect x="39" y="120" width="48" height="2" fill="#DA291C" />
<rect x="96" y="120" width="46" height="2" fill="#DA291C" />
<rect x="168" y="120" width="16" height="2" fill="#DA291C" />
<rect x="200" y="120" width="16" height="2" fill="#DA291C" />
<rect x="226" y="120" width="46" height="2" fill="#DA291C" />
<rect x="280" y="120" width="44" height="2" fill="#DA291C" />
<rect x="327" y="120" width="39" height="2" fill="#DA291C" />
<rect x="372" y="120" width="42" height="2" fill="#DA291C" />
<rect x="436" y="120" width="1" height="3" fill="#DA291C" />
<rect x="15" y="121" width="1" height="3" fill="#DA291C" />
<rect x="17" y="121" width="1" height="1" fill="#DA291C" />
<rect x="435" y="121" width="1" height="1" fill="#DA291C" />
<rect x="437" y="121" width="1" height="3" fill="#DA291C" />
<rect x="13" y="122" width="2" height="2" fill="#DA291C" />
<rect x="39" y="122" width="2" height="24" fill="#DA291C" />
<rect x="85" y="122" width="2" height="44" fill="#DA291C" />
<rect x="96" y="122" width="2" height="62" fill="#DA291C" />
<rect x="140" y="122" width="2" height="62" fill="#DA291C" />
<rect x="168" y="122" width="2" height="31" fill="#DA291C" />
<rect x="182" y="122" width="2" height="17" fill="#DA291C" />
<rect x="200" y="122" width="2" height="17" fill="#DA291C" />
<rect x="214" y="122" width="2" height="31" fill="#DA291C" />
<rect x="226" y="122" width="2" height="62" fill="#DA291C" />
<rect x="270" y="122" width="2" height="14" fill="#DA291C" />
<rect x="280" y="122" width="2" height="62" fill="#DA291C" />
<rect x="322" y="122" width="2" height="62" fill="#DA291C" />
<rect x="327" y="122" width="2" height="62" fill="#DA291C" />
<rect x="364" y="122" width="2" height="32" fill="#DA291C" />
<rect x="372" y="122" width="2" height="36" fill="#DA291C" />
<rect x="412" y="122" width="2" height="15" fill="#DA291C" />
<rect x="438" y="122" width="2" height="2" fill="#DA291C" />
<rect x="12" y="123" width="1" height="3" fill="#DA291C" />
<rect x="440" y="123" width="1" height="3" fill="#DA291C" />
<rect x="11" y="124" width="1" height="4" fill="#DA291C" />
<rect x="13" y="124" width="1" height="1" fill="#DA291C" />
<rect x="439" y="124" width="1" height="1" fill="#DA291C" />
<rect x="441" y="124" width="1" height="4" fill="#DA291C" />
<rect x="10" y="125" width="1" height="4" fill="#DA291C" />
<rect x="442" y="125" width="1" height="4" fill="#DA291C" />
<rect x="9" y="127" width="1" height="3" fill="#DA291C" />
<rect x="443" y="127" width="1" height="3" fill="#DA291C" />
<rect x="8" y="128" width="1" height="4" fill="#DA291C" />
<rect x="444" y="128" width="1" height="4" fill="#DA291C" />
<rect x="7" y="129" width="1" height="4" fill="#DA291C" />
<rect x="339" y="129" width="15" height="2" fill="#DA291C" />
<rect x="445" y="129" width="1" height="4" fill="#DA291C" />
<rect x="383" y="130" width="20" height="2" fill="#DA291C" />
<rect x="6" y="131" width="1" height="4" fill="#DA291C" />
<rect x="339" y="131" width="2" height="13" fill="#DA291C" />
<rect x="352" y="131" width="2" height="13" fill="#DA291C" />
<rect x="446" y="131" width="1" height="4" fill="#DA291C" />
<rect x="5" y="132" width="1" height="5" fill="#DA291C" />
<rect x="54" y="132" width="18" height="2" fill="#DA291C" />
<rect x="383" y="132" width="2" height="15" fill="#DA291C" />
<rect x="401" y="132" width="2" height="5" fill="#DA291C" />
<rect x="447" y="132" width="1" height="5" fill="#DA291C" />
<rect x="294" y="133" width="16" height="2" fill="#DA291C" />
<rect x="4" y="134" width="1" height="6" fill="#DA291C" />
<rect x="54" y="134" width="2" height="12" fill="#DA291C" />
<rect x="70" y="134" width="2" height="20" fill="#DA291C" />
<rect x="110" y="134" width="18" height="2" fill="#DA291C" />
<rect x="240" y="134" width="30" height="2" fill="#DA291C" />
<rect x="448" y="134" width="1" height="6" fill="#DA291C" />
<rect x="294" y="135" width="2" height="24" fill="#DA291C" />
<rect x="308" y="135" width="2" height="24" fill="#DA291C" />
<rect x="403" y="135" width="9" height="2" fill="#DA291C" />
<rect x="3" y="136" width="1" height="7" fill="#DA291C" />
<rect x="110" y="136" width="2" height="34" fill="#DA291C" />
<rect x="126" y="136" width="2" height="34" fill="#DA291C" />
<rect x="240" y="136" width="2" height="10" fill="#DA291C" />
<rect x="449" y="136" width="1" height="7" fill="#DA291C" />
<rect x="184" y="137" width="16" height="2" fill="#DA291C" />
<rect x="2" y="139" width="1" height="8" fill="#DA291C" />
<rect x="450" y="139" width="1" height="8" fill="#DA291C" />
<rect x="1" y="142" width="1" height="21" fill="#DA291C" />
<rect x="341" y="142" width="11" height="2" fill="#DA291C" />
<rect x="451" y="142" width="1" height="21" fill="#DA291C" />
<rect x="41" y="144" width="13" height="2" fill="#DA291C" />
<rect x="242" y="144" width="30" height="2" fill="#DA291C" />
<rect x="385" y="145" width="29" height="2" fill="#DA291C" />
<rect x="0" y="146" width="1" height="13" fill="#DA291C" />
<rect x="270" y="146" width="2" height="14" fill="#DA291C" />
<rect x="452" y="146" width="1" height="13" fill="#DA291C" />
<rect x="412" y="147" width="2" height="37" fill="#DA291C" />
<rect x="170" y="151" width="16" height="2" fill="#DA291C" />
<rect x="198" y="151" width="16" height="2" fill="#DA291C" />
<rect x="39" y="152" width="31" height="2" fill="#DA291C" />
<rect x="357" y="152" width="7" height="2" fill="#DA291C" />
<rect x="184" y="153" width="2" height="31" fill="#DA291C" />
<rect x="198" y="153" width="2" height="31" fill="#DA291C" />
<rect x="339" y="153" width="8" height="1" fill="#DA291C" />
<rect x="39" y="154" width="2" height="31" fill="#DA291C" />
<rect x="339" y="154" width="2" height="30" fill="#DA291C" />
<rect x="345" y="154" width="2" height="30" fill="#DA291C" />
<rect x="357" y="154" width="2" height="18" fill="#DA291C" />
<rect x="374" y="156" width="30" height="2" fill="#DA291C" />
<rect x="296" y="157" width="12" height="2" fill="#DA291C" />
<rect x="2" y="158" width="1" height="8" fill="#DA291C" />
<rect x="240" y="158" width="30" height="2" fill="#DA291C" />
<rect x="402" y="158" width="2" height="16" fill="#DA291C" />
<rect x="450" y="158" width="1" height="8" fill="#DA291C" />
<rect x="240" y="160" width="2" height="10" fill="#DA291C" />
<rect x="3" y="162" width="1" height="7" fill="#DA291C" />
<rect x="449" y="162" width="1" height="7" fill="#DA291C" />
<rect x="54" y="164" width="31" height="2" fill="#DA291C" />
<rect x="4" y="165" width="1" height="6" fill="#DA291C" />
<rect x="448" y="165" width="1" height="6" fill="#DA291C" />
<rect x="54" y="166" width="2" height="7" fill="#DA291C" />
<rect x="372" y="167" width="13" height="2" fill="#DA291C" />
<rect x="5" y="168" width="1" height="5" fill="#DA291C" />
<rect x="112" y="168" width="14" height="2" fill="#DA291C" />
<rect x="242" y="168" width="30" height="2" fill="#DA291C" />
<rect x="447" y="168" width="1" height="5" fill="#DA291C" />
<rect x="372" y="169" width="2" height="15" fill="#DA291C" />
<rect x="383" y="169" width="2" height="5" fill="#DA291C" />
<rect x="6" y="170" width="1" height="4" fill="#DA291C" />
<rect x="270" y="170" width="2" height="14" fill="#DA291C" />
<rect x="294" y="170" width="16" height="2" fill="#DA291C" />
<rect x="359" y="170" width="7" height="2" fill="#DA291C" />
<rect x="446" y="170" width="1" height="4" fill="#DA291C" />
<rect x="56" y="171" width="31" height="2" fill="#DA291C" />
<rect x="7" y="172" width="1" height="4" fill="#DA291C" />
<rect x="294" y="172" width="2" height="12" fill="#DA291C" />
<rect x="308" y="172" width="2" height="12" fill="#DA291C" />
<rect x="364" y="172" width="2" height="12" fill="#DA291C" />
<rect x="385" y="172" width="17" height="2" fill="#DA291C" />
<rect x="445" y="172" width="1" height="4" fill="#DA291C" />
<rect x="8" y="173" width="1" height="4" fill="#DA291C" />
<rect x="85" y="173" width="2" height="12" fill="#DA291C" />
<rect x="444" y="173" width="1" height="4" fill="#DA291C" />
<rect x="9" y="175" width="1" height="3" fill="#DA291C" />
<rect x="443" y="175" width="1" height="3" fill="#DA291C" />
<rect x="10" y="176" width="1" height="4" fill="#DA291C" />
<rect x="442" y="176" width="1" height="4" fill="#DA291C" />
<rect x="11" y="177" width="1" height="4" fill="#DA291C" />
<rect x="441" y="177" width="1" height="4" fill="#DA291C" />
<rect x="12" y="179" width="1" height="3" fill="#DA291C" />
<rect x="440" y="179" width="1" height="3" fill="#DA291C" />
<rect x="13" y="180" width="1" height="3" fill="#DA291C" />
<rect x="439" y="180" width="1" height="3" fill="#DA291C" />
<rect x="14" y="181" width="2" height="2" fill="#DA291C" />
<rect x="437" y="181" width="2" height="2" fill="#DA291C" />
<rect x="16" y="182" width="1" height="3" fill="#DA291C" />
<rect x="98" y="182" width="42" height="2" fill="#DA291C" />
<rect x="186" y="182" width="12" height="2" fill="#DA291C" />
<rect x="228" y="182" width="42" height="2" fill="#DA291C" />
<rect x="282" y="182" width="12" height="2" fill="#DA291C" />
<rect x="310" y="182" width="12" height="2" fill="#DA291C" />
<rect x="329" y="182" width="10" height="2" fill="#DA291C" />
<rect x="347" y="182" width="17" height="2" fill="#DA291C" />
<rect x="374" y="182" width="38" height="2" fill="#DA291C" />
<rect x="436" y="182" width="1" height="3" fill="#DA291C" />
<rect x="15" y="183" width="1" height="1" fill="#DA291C" />
<rect x="17" y="183" width="1" height="3" fill="#DA291C" />
<rect x="41" y="183" width="44" height="2" fill="#DA291C" />
<rect x="435" y="183" width="1" height="3" fill="#DA291C" />
<rect x="437" y="183" width="1" height="1" fill="#DA291C" />
<rect x="18" y="184" width="2" height="2" fill="#DA291C" />
<rect x="433" y="184" width="2" height="2" fill="#DA291C" />
<rect x="20" y="185" width="1" height="3" fill="#DA291C" />
<rect x="432" y="185" width="1" height="3" fill="#DA291C" />
<rect x="19" y="186" width="1" height="1" fill="#DA291C" />
<rect x="21" y="186" width="2" height="2" fill="#DA291C" />
<rect x="430" y="186" width="2" height="2" fill="#DA291C" />
<rect x="433" y="186" width="1" height="1" fill="#DA291C" />
<rect x="23" y="187" width="2" height="2" fill="#DA291C" />
<rect x="428" y="187" width="2" height="2" fill="#DA291C" />
<rect x="22" y="188" width="1" height="1" fill="#DA291C" />
<rect x="25" y="188" width="3" height="2" fill="#DA291C" />
<rect x="425" y="188" width="3" height="2" fill="#DA291C" />
<rect x="430" y="188" width="1" height="1" fill="#DA291C" />
<rect x="24" y="189" width="1" height="1" fill="#DA291C" />
<rect x="28" y="189" width="3" height="2" fill="#DA291C" />
<rect x="422" y="189" width="3" height="2" fill="#DA291C" />
<rect x="428" y="189" width="1" height="1" fill="#DA291C" />
<rect x="27" y="190" width="1" height="1" fill="#DA291C" />
<rect x="31" y="190" width="4" height="2" fill="#DA291C" />
<rect x="418" y="190" width="4" height="2" fill="#DA291C" />
<rect x="425" y="190" width="1" height="1" fill="#DA291C" />
<rect x="30" y="191" width="1" height="1" fill="#DA291C" />
<rect x="35" y="191" width="383" height="2" fill="#DA291C" />
<rect x="422" y="191" width="1" height="1" fill="#DA291C" />
<rect x="33" y="192" width="2" height="1" fill="#DA291C" />
<rect x="418" y="192" width="1" height="1" fill="#DA291C" />
</svg>