<?xml version="1.0" encoding="UTF-8" ?>
<svg version="1.1" width="503" height="193" xmlns="http://www.w3.org/2000/svg" shape-rendering="crispEdges">
<rect x="89" y="0" width="64" height="18" fill="#DA291C" />
<rect x="169" y="0" width="64" height="23" fill="#DA291C" />
<rect x="249" y="0" width="64" height="18" fill="#DA291C" />
<rect x="329" y="0" width="64" height="18" fill="#DA291C" />
<rect x="89" y="18" width="22" height="84" fill="#DA291C" />
<rect x="130" y="18" width="23" height="37" fill="#DA291C" />
<rect x="249" y="18" width="22" height="84" fill="#DA291C" />
<rect x="290" y="18" width="23" height="84" fill="#DA291C" />
<rect x="329" y="18" width="18" height="43" fill="#DA291C" />
<rect x="375" y="18" width="18" height="8" fill="#DA291C" />
<rect x="169" y="23" width="23" height="79" fill="#DA291C" />
<rect x="210" y="23" width="23" height="14" fill="#DA291C" />
<rect x="111" y="37" width="19" height="18" fill="#DA291C" />
<rect x="347" y="41" width="46" height="20" fill="#DA291C" />
<rect x="118" y="55" width="22" height="47" fill="#DA291C" />
<rect x="375" y="61" width="18" height="41" fill="#DA291C" />
<rect x="210" y="66" width="23" height="36" fill="#DA291C" />
<rect x="329" y="76" width="18" height="26" fill="#DA291C" />
<rect x="192" y="79" width="18" height="23" fill="#DA291C" />
<rect x="140" y="80" width="13" height="22" fill="#DA291C" />
<rect x="271" y="84" width="19" height="18" fill="#DA291C" />
<rect x="347" y="84" width="28" height="18" fill="#DA291C" />
<rect x="46" y="112" width="390" height="10" fill="#DA291C" />
<rect x="45" y="113" width="1" height="80" fill="#DA291C" />
<rect x="436" y="113" width="1" height="80" fill="#DA291C" />
<rect x="44" y="114" width="1" height="78" fill="#DA291C" />
<rect x="437" y="114" width="1" height="78" fill="#DA291C" />
<rect x="43" y="115" width="1" height="76" fill="#DA291C" />
<rect x="438" y="115" width="1" height="76" fill="#DA291C" />
<rect x="42" y="116" width="1" height="74" fill="#DA291C" />
<rect x="439" y="116" width="1" height="74" fill="#DA291C" />
<rect x="41" y="117" width="1" height="72" fill="#DA291C" />
<rect x="440" y="117" width="1" height="72" fill="#DA291C" />
<rect x="40" y="118" width="1" height="70" fill="#DA291C" />
<rect x="441" y="118" width="1" height="70" fill="#DA291C" />
<rect x="39" y="119" width="1" height="68" fill="#DA291C" />
<rect x="442" y="119" width="1" height="68" fill="#DA291C" />
<rect x="38" y="120" width="1" height="66" fill="#DA291C" />
<rect x="443" y="120" width="1" height="66" fill="#DA291C" />
<rect x="37" y="121" width="1" height="64" fill="#DA291C" />
<rect x="444" y="121" width="1" height="64" fill="#DA291C" />
<rect x="36" y="122" width="1" height="62" fill="#DA291C" />
<rect x="46" y="122" width="9" height="71" fill="#DA291C" />
<rect x="99" y="122" width="13" height="71" fill="#DA291C" />
<rect x="154" y="122" width="32" height="71" fill="#DA291C" />
<rect x="198" y="122" width="20" height="17" fill="#DA291C" />
<rect x="230" y="122" width="10" height="71" fill="#DA291C" />
<rect x="282" y="122" width="10" height="71" fill="#DA291C" />
<rect x="332" y="122" width="11" height="71" fill="#DA291C" />
<rect x="378" y="122" width="10" height="71" fill="#DA291C" />
<rect x="426" y="122" width="10" height="71" fill="#DA291C" />
<rect x="445" y="122" width="1" height="62" fill="#DA291C" />
<rect x="35" y="123" width="1" height="60" fill="#DA291C" />
<rect x="446" y="123" width="1" height="60" fill="#DA291C" />
<rect x="34" y="124" width="1" height="58" fill="#DA291C" />
<rect x="447" y="124" width="1" height="58" fill="#DA291C" />
<rect x="33" y="125" width="1" height="56" fill="#DA291C" />
<rect x="448" y="125" width="1" height="56" fill="#DA291C" />
<rect x="32" y="126" width="1" height="54" fill="#DA291C" />
<rect x="449" y="126" width="1" height="54" fill="#DA291C" />
<rect x="31" y="127" width="1" height="52" fill="#DA291C" />
<rect x="450" y="127" width="1" height="52" fill="#DA291C" />
<rect x="30" y="128" width="1" height="50" fill="#DA291C" />
<rect x="451" y="128" width="1" height="50" fill="#DA291C" />
<rect x="29" y="129" width="1" height="48" fill="#DA291C" />
<rect x="353" y="129" width="15" height="15" fill="#DA291C" />
<rect x="452" y="129" width="1" height="48" fill="#DA291C" />
<rect x="28" y="130" width="1" height="46" fill="#DA291C" />
<rect x="397" y="130" width="20" height="17" fill="#DA291C" />
<rect x="453" y="130" width="1" height="46" fill="#DA291C" />
<rect x="27" y="131" width="1" height="44" fill="#DA291C" />
<rect x="454" y="131" width="1" height="44" fill="#DA291C" />
<rect x="26" y="132" width="1" height="42" fill="#DA291C" />
<rect x="68" y="132" width="18" height="22" fill="#DA291C" />
<rect x="455" y="132" width="1" height="42" fill="#DA291C" />
<rect x="25" y="133" width="1" height="40" fill="#DA291C" />
<rect x="304" y="133" width="16" height="26" fill="#DA291C" />
<rect x="456" y="133" width="1" height="40" fill="#DA291C" />
<rect x="24" y="134" width="1" height="38" fill="#DA291C" />
<rect x="124" y="134" width="18" height="36" fill="#DA291C" />
<rect x="252" y="134" width="30" height="12" fill="#DA291C" />
<rect x="457" y="134" width="1" height="38" fill="#DA291C" />
<rect x="23" y="135" width="1" height="36" fill="#DA291C" />
<rect x="417" y="135" width="9" height="12" fill="#DA291C" />
<rect x="458" y="135" width="1" height="36" fill="#DA291C" />
<rect x="22" y="136" width="1" height="34" fill="#DA291C" />
<rect x="459" y="136" width="1" height="34" fill="#DA291C" />
<rect x="55" y="144" width="13" height="10" fill="#DA291C" />
<rect x="186" y="151" width="16" height="42" fill="#DA291C" />
<rect x="214" y="151" width="16" height="42" fill="#DA291C" />
<rect x="353" y="152" width="8" height="41" fill="#DA291C" />
<rect x="371" y="152" width="7" height="20" fill="#DA291C" />
<rect x="388" y="156" width="30" height="13" fill="#DA291C" />
<rect x="252" y="158" width="30" height="12" fill="#DA291C" />
<rect x="68" y="164" width="31" height="9" fill="#DA291C" />
<rect x="397" y="169" width="21" height="5" fill="#DA291C" />
<rect x="304" y="170" width="16" height="23" fill="#DA291C" />
<rect x="112" y="182" width="42" height="11" fill="#DA291C" />
<rect x="202" y="182" width="12" height="11" fill="#DA291C" />
<rect x="240" y="182" width="42" height="11" fill="#DA291C" />
<rect x="292" y="182" width="12" height="11" fill="#DA291C" />
<rect x="320" y="182" width="12" height="11" fill="#DA291C" />
<rect x="343" y="182" width="10" height="11" fill="#DA291C" />
<rect x="361" y="182" width="17" height="11" fill="#DA291C" />
<rect x="388" y="182" width="38" height="11" fill="#DA291C" />
<rect x="55" y="183" width="44" height="10" fill="#DA291C" />
</svg>