<?xml version="1.0" encoding="UTF-8" ?>
<svg version="1.1" width="397" height="193" xmlns="http://www.w3.org/2000/svg" shape-rendering="crispEdges">
<rect x="42" y="0" width="64" height="2" fill="#DA291C" />
<rect x="122" y="0" width="64" height="2" fill="#DA291C" />
<rect x="202" y="0" width="64" height="2" fill="#DA291C" />
<rect x="282" y="0" width="64" height="2" fill="#DA291C" />
<rect x="42" y="2" width="2" height="100" fill="#DA291C" />
<rect x="104" y="2" width="2" height="53" fill="#DA291C" />
<rect x="122" y="2" width="2" height="100" fill="#DA291C" />
<rect x="184" y="2" width="2" height="35" fill="#DA291C" />
<rect x="202" y="2" width="2" height="100" fill="#DA291C" />
<rect x="264" y="2" width="2" height="100" fill="#DA291C" />
<rect x="282" y="2" width="2" height="59" fill="#DA291C" />
<rect x="344" y="2" width="2" height="24" fill="#DA291C" />
<rect x="62" y="16" width="23" height="2" fill="#DA291C" />
<rect x="222" y="16" width="23" height="2" fill="#DA291C" />
<rect x="298" y="16" width="32" height="2" fill="#DA291C" />
<rect x="62" y="18" width="2" height="21" fill="#DA291C" />
<rect x="83" y="18" width="2" height="21" fill="#DA291C" />
<rect x="222" y="18" width="2" height="68" fill="#DA291C" />
<rect x="243" y="18" width="2" height="68" fill="#DA291C" />
<rect x="298" y="18" width="2" height="25" fill="#DA291C" />
<rect x="328" y="18" width="2" height="8" fill="#DA291C" />
<rect x="143" y="21" width="22" height="2" fill="#DA291C" />
<rect x="143" y="23" width="2" height="58" fill="#DA291C" />
<rect x="163" y="23" width="2" height="14" fill="#DA291C" />
<rect x="330" y="24" width="14" height="2" fill="#DA291C" />
<rect x="165" y="35" width="19" height="2" fill="#DA291C" />
<rect x="64" y="37" width="19" height="2" fill="#DA291C" />
<rect x="300" y="41" width="46" height="2" fill="#DA291C" />
<rect x="344" y="43" width="2" height="59" fill="#DA291C" />
<rect x="62" y="53" width="11" height="2" fill="#DA291C" />
<rect x="91" y="53" width="13" height="2" fill="#DA291C" />
<rect x="62" y="55" width="2" height="47" fill="#DA291C" />
<rect x="71" y="55" width="2" height="47" fill="#DA291C" />
<rect x="91" y="55" width="2" height="27" fill="#DA291C" />
<rect x="284" y="59" width="46" height="2" fill="#DA291C" />
<rect x="328" y="61" width="2" height="25" fill="#DA291C" />
<rect x="163" y="66" width="23" height="2" fill="#DA291C" />
<rect x="163" y="68" width="2" height="13" fill="#DA291C" />
<rect x="184" y="68" width="2" height="34" fill="#DA291C" />
<rect x="282" y="76" width="18" height="2" fill="#DA291C" />
<rect x="282" y="78" width="2" height="24" fill="#DA291C" />
<rect x="298" y="78" width="2" height="8" fill="#DA291C" />
<rect x="145" y="79" width="18" height="2" fill="#DA291C" />
<rect x="93" y="80" width="13" height="2" fill="#DA291C" />
<rect x="104" y="82" width="2" height="20" fill="#DA291C" />
<rect x="224" y="84" width="19" height="2" fill="#DA291C" />
<rect x="300" y="84" width="28" height="2" fill="#DA291C" />
<rect x="44" y="100" width="18" height="2" fill="#DA291C" />
<rect x="73" y="100" width="31" height="2" fill="#DA291C" />
<rect x="124" y="100" width="60" height="2" fill="#DA291C" />
<rect x="204" y="100" width="60" height="2" fill="#DA291C" />
<rect x="284" y="100" width="60" height="2" fill="#DA291C" />
<rect x="1" y="112" width="396" height="2" fill="#DA291C" />
<rect x="1" y="114" width="2" height="79" fill="#DA291C" />
<rect x="395" y="114" width="2" height="79" fill="#DA291C" />
<rect x="11" y="120" width="48" height="2" fill="#DA291C" />
<rect x="68" y="120" width="46" height="2" fill="#DA291C" />
<rect x="142" y="120" width="16" height="2" fill="#DA291C" />
<rect x="174" y="120" width="16" height="2" fill="#DA291C" />
<rect x="196" y="120" width="46" height="2" fill="#DA291C" />
<rect x="248" y="120" width="44" height="2" fill="#DA291C" />
<rect x="299" y="120" width="39" height="2" fill="#DA291C" />
<rect x="344" y="120" width="42" height="2" fill="#DA291C" />
<rect x="11" y="122" width="2" height="24" fill="#DA291C" />
<rect x="57" y="122" width="2" height="44" fill="#DA291C" />
<rect x="68" y="122" width="2" height="62" fill="#DA291C" />
<rect x="112" y="122" width="2" height="62" fill="#DA291C" />
<rect x="142" y="122" width="2" height="31" fill="#DA291C" />
<rect x="156" y="122" width="2" height="17" fill="#DA291C" />
<rect x="174" y="122" width="2" height="17" fill="#DA291C" />
<rect x="188" y="122" width="2" height="31" fill="#DA291C" />
<rect x="196" y="122" width="2" height="62" fill="#DA291C" />
<rect x="240" y="122" width="2" height="14" fill="#DA291C" />
<rect x="248" y="122" width="2" height="62" fill="#DA291C" />
<rect x="290" y="122" width="2" height="62" fill="#DA291C" />
<rect x="299" y="122" width="2" height="62" fill="#DA291C" />
<rect x="336" y="122" width="2" height="32" fill="#DA291C" />
<rect x="344" y="122" width="2" height="36" fill="#DA291C" />
<rect x="384" y="122" width="2" height="15" fill="#DA291C" />
<rect x="311" y="129" width="15" height="2" fill="#DA291C" />
<rect x="355" y="130" width="20" height="2" fill="#DA291C" />
<rect x="311" y="131" width="2" height="13" fill="#DA291C" />
<rect x="324" y="131" width="2" height="13" fill="#DA291C" />
<rect x="26" y="132" width="18" height="2" fill="#DA291C" />
<rect x="355" y="132" width="2" height="15" fill="#DA291C" />
<rect x="373" y="132" width="2" height="5" fill="#DA291C" />
<rect x="262" y="133" width="16" height="2" fill="#DA291C" />
<rect x="26" y="134" width="2" height="12" fill="#DA291C" />
<rect x="42" y="134" width="2" height="20" fill="#DA291C" />
<rect x="82" y="134" width="18" height="2" fill="#DA291C" />
<rect x="210" y="134" width="30" height="2" fill="#DA291C" />
<rect x="262" y="135" width="2" height="24" fill="#DA291C" />
<rect x="276" y="135" width="2" height="24" fill="#DA291C" />
<rect x="375" y="135" width="9" height="2" fill="#DA291C" />
<rect x="82" y="136" width="2" height="34" fill="#DA291C" />
<rect x="98" y="136" width="2" height="34" fill="#DA291C" />
<rect x="210" y="136" width="2" height="10" fill="#DA291C" />
<rect x="158" y="137" width="16" height="2" fill="#DA291C" />
<rect x="313" y="142" width="11" height="2" fill="#DA291C" />
<rect x="13" y="144" width="13" height="2" fill="#DA291C" />
<rect x="212" y="144" width="30" height="2" fill="#DA291C" />
<rect x="357" y="145" width="29" height="2" fill="#DA291C" />
<rect x="240" y="146" width="2" height="14" fill="#DA291C" />
<rect x="384" y="147" width="2" height="37" fill="#DA291C" />
<rect x="144" y="151" width="16" height="2" fill="#DA291C" />
<rect x="172" y="151" width="16" height="2" fill="#DA291C" />
<rect x="11" y="152" width="31" height="2" fill="#DA291C" />
<rect x="329" y="152" width="7" height="2" fill="#DA291C" />
<rect x="158" y="153" width="2" height="31" fill="#DA291C" />
<rect x="172" y="153" width="2" height="31" fill="#DA291C" />
<rect x="311" y="153" width="8" height="1" fill="#DA291C" />
<rect x="11" y="154" width="2" height="31" fill="#DA291C" />
<rect x="311" y="154" width="2" height="30" fill="#DA291C" />
<rect x="317" y="154" width="2" height="30" fill="#DA291C" />
<rect x="329" y="154" width="2" height="18" fill="#DA291C" />
<rect x="346" y="156" width="30" height="2" fill="#DA291C" />
<rect x="264" y="157" width="12" height="2" fill="#DA291C" />
<rect x="210" y="158" width="30" height="2" fill="#DA291C" />
<rect x="374" y="158" width="2" height="16" fill="#DA291C" />
<rect x="210" y="160" width="2" height="10" fill="#DA291C" />
<rect x="26" y="164" width="31" height="2" fill="#DA291C" />
<rect x="26" y="166" width="2" height="7" fill="#DA291C" />
<rect x="344" y="167" width="13" height="2" fill="#DA291C" />
<rect x="84" y="168" width="14" height="2" fill="#DA291C" />
<rect x="212" y="168" width="30" height="2" fill="#DA291C" />
<rect x="344" y="169" width="2" height="15" fill="#DA291C" />
<rect x="355" y="169" width="2" height="5" fill="#DA291C" />
<rect x="240" y="170" width="2" height="14" fill="#DA291C" />
<rect x="262" y="170" width="16" height="2" fill="#DA291C" />
<rect x="331" y="170" width="7" height="2" fill="#DA291C" />
<rect x="28" y="171" width="31" height="2" fill="#DA291C" />
<rect x="262" y="172" width="2" height="12" fill="#DA291C" />
<rect x="276" y="172" width="2" height="12" fill="#DA291C" />
<rect x="336" y="172" width="2" height="12" fill="#DA291C" />
<rect x="357" y="172" width="17" height="2" fill="#DA291C" />
<rect x="57" y="173" width="2" height="12" fill="#DA291C" />
<rect x="70" y="182" width="42" height="2" fill="#DA291C" />
<rect x="160" y="182" width="12" height="2" fill="#DA291C" />
<rect x="198" y="182" width="42" height="2" fill="#DA291C" />
<rect x="250" y="182" width="12" height="2" fill="#DA291C" />
<rect x="278" y="182" width="12" height="2" fill="#DA291C" />
<rect x="301" y="182" width="10" height="2" fill="#DA291C" />
<rect x="319" y="182" width="17" height="2" fill="#DA291C" />
<rect x="346" y="182" width="38" height="2" fill="#DA291C" />
<rect x="13" y="183" width="44" height="2" fill="#DA291C" />
<rect x="3" y="191" width="392" height="2" fill="#DA291C" />
</svg>