<?xml version="1.0" encoding="UTF-8" ?>
<svg version="1.1" width="453" height="193" xmlns="http://www.w3.org/2000/svg" shape-rendering="crispEdges">
<rect x="0" y="0" width="1" height="2" fill="#DA291C" />
<rect x="74" y="0" width="64" height="18" fill="#DA291C" />
<rect x="154" y="0" width="64" height="23" fill="#DA291C" />
<rect x="234" y="0" width="64" height="18" fill="#DA291C" />
<rect x="314" y="0" width="64" height="18" fill="#DA291C" />
<rect x="451" y="0" width="2" height="2" fill="#DA291C" />
<rect x="74" y="18" width="22" height="84" fill="#DA291C" />
<rect x="115" y="18" width="23" height="37" fill="#DA291C" />
<rect x="234" y="18" width="22" height="84" fill="#DA291C" />
<rect x="275" y="18" width="23" height="84" fill="#DA291C" />
<rect x="314" y="18" width="18" height="43" fill="#DA291C" />
<rect x="360" y="18" width="18" height="8" fill="#DA291C" />
<rect x="154" y="23" width="23" height="79" fill="#DA291C" />
<rect x="195" y="23" width="23" height="14" fill="#DA291C" />
<rect x="96" y="37" width="19" height="18" fill="#DA291C" />
<rect x="332" y="41" width="46" height="20" fill="#DA291C" />
<rect x="103" y="55" width="22" height="47" fill="#DA291C" />
<rect x="360" y="61" width="18" height="41" fill="#DA291C" />
<rect x="195" y="66" width="23" height="36" fill="#DA291C" />
<rect x="314" y="76" width="18" height="26" fill="#DA291C" />
<rect x="177" y="79" width="18" height="23" fill="#DA291C" />
<rect x="125" y="80" width="13" height="22" fill="#DA291C" />
<rect x="256" y="84" width="19" height="18" fill="#DA291C" />
<rect x="332" y="84" width="28" height="18" fill="#DA291C" />
<rect x="33" y="112" width="386" height="10" fill="#DA291C" />
<rect x="30" y="113" width="3" height="79" fill="#DA291C" />
<rect x="419" y="113" width="4" height="79" fill="#DA291C" />
<rect x="27" y="114" width="3" height="77" fill="#DA291C" />
<rect x="423" y="114" width="3" height="77" fill="#DA291C" />
<rect x="24" y="115" width="3" height="75" fill="#DA291C" />
<rect x="426" y="115" width="3" height="75" fill="#DA291C" />
<rect x="22" y="116" width="2" height="73" fill="#DA291C" />
<rect x="429" y="116" width="2" height="73" fill="#DA291C" />
<rect x="20" y="117" width="2" height="71" fill="#DA291C" />
<rect x="431" y="117" width="2" height="71" fill="#DA291C" />
<rect x="19" y="118" width="1" height="69" fill="#DA291C" />
<rect x="433" y="118" width="1" height="69" fill="#DA291C" />
<rect x="17" y="119" width="2" height="67" fill="#DA291C" />
<rect x="434" y="119" width="2" height="67" fill="#DA291C" />
<rect x="16" y="120" width="1" height="65" fill="#DA291C" />
<rect x="436" y="120" width="1" height="65" fill="#DA291C" />
<rect x="15" y="121" width="1" height="63" fill="#DA291C" />
<rect x="437" y="121" width="1" height="63" fill="#DA291C" />
<rect x="13" y="122" width="2" height="61" fill="#DA291C" />
<rect x="33" y="122" width="8" height="71" fill="#DA291C" />
<rect x="85" y="122" width="13" height="71" fill="#DA291C" />
<rect x="140" y="122" width="32" height="71" fill="#DA291C" />
<rect x="184" y="122" width="20" height="17" fill="#DA291C" />
<rect x="216" y="122" width="10" height="71" fill="#DA291C" />
<rect x="268" y="122" width="10" height="71" fill="#DA291C" />
<rect x="318" y="122" width="11" height="71" fill="#DA291C" />
<rect x="364" y="122" width="10" height="71" fill="#DA291C" />
<rect x="412" y="122" width="7" height="71" fill="#DA291C" />
<rect x="438" y="122" width="2" height="61" fill="#DA291C" />
<rect x="12" y="123" width="1" height="59" fill="#DA291C" />
<rect x="440" y="123" width="1" height="59" fill="#DA291C" />
<rect x="11" y="124" width="1" height="57" fill="#DA291C" />
<rect x="441" y="124" width="1" height="57" fill="#DA291C" />
<rect x="10" y="125" width="1" height="55" fill="#DA291C" />
<rect x="442" y="125" width="1" height="55" fill="#DA291C" />
<rect x="9" y="127" width="1" height="51" fill="#DA291C" />
<rect x="443" y="127" width="1" height="51" fill="#DA291C" />
<rect x="8" y="128" width="1" height="49" fill="#DA291C" />
<rect x="444" y="128" width="1" height="49" fill="#DA291C" />
<rect x="7" y="129" width="1" height="47" fill="#DA291C" />
<rect x="339" y="129" width="15" height="15" fill="#DA291C" />
<rect x="445" y="129" width="1" height="47" fill="#DA291C" />
<rect x="383" y="130" width="20" height="17" fill="#DA291C" />
<rect x="6" y="131" width="1" height="43" fill="#DA291C" />
<rect x="446" y="131" width="1" height="43" fill="#DA291C" />
<rect x="5" y="132" width="1" height="41" fill="#DA291C" />
<rect x="54" y="132" width="18" height="22" fill="#DA291C" />
<rect x="447" y="132" width="1" height="41" fill="#DA291C" />
<rect x="290" y="133" width="16" height="26" fill="#DA291C" />
<rect x="4" y="134" width="1" height="37" fill="#DA291C" />
<rect x="110" y="134" width="18" height="36" fill="#DA291C" />
<rect x="238" y="134" width="30" height="12" fill="#DA291C" />
<rect x="448" y="134" width="1" height="37" fill="#DA291C" />
<rect x="403" y="135" width="9" height="12" fill="#DA291C" />
<rect x="3" y="136" width="1" height="33" fill="#DA291C" />
<rect x="449" y="136" width="1" height="33" fill="#DA291C" />
<rect x="2" y="139" width="1" height="27" fill="#DA291C" />
<rect x="450" y="139" width="1" height="27" fill="#DA291C" />
<rect x="1" y="142" width="1" height="21" fill="#DA291C" />
<rect x="451" y="142" width="1" height="21" fill="#DA291C" />
<rect x="41" y="144" width="13" height="10" fill="#DA291C" />
<rect x="0" y="146" width="1" height="13" fill="#DA291C" />
<rect x="452" y="146" width="1" height="13" fill="#DA291C" />
<rect x="172" y="151" width="16" height="42" fill="#DA291C" />
<rect x="200" y="151" width="16" height="42" fill="#DA291C" />
<rect x="339" y="152" width="8" height="41" fill="#DA291C" />
<rect x="357" y="152" width="7" height="20" fill="#DA291C" />
<rect x="374" y="156" width="30" height="13" fill="#DA291C" />
<rect x="238" y="158" width="30" height="12" fill="#DA291C" />
<rect x="54" y="164" width="31" height="9" fill="#DA291C" />
<rect x="383" y="169" width="21" height="5" fill="#DA291C" />
<rect x="290" y="170" width="16" height="23" fill="#DA291C" />
<rect x="98" y="182" width="42" height="11" fill="#DA291C" />
<rect x="188" y="182" width="12" height="11" fill="#DA291C" />
<rect x="226" y="182" width="42" height="11" fill="#DA291C" />
<rect x="278" y="182" width="12" height="11" fill="#DA291C" />
<rect x="306" y="182" width="12" height="11" fill="#DA291C" />
<rect x="329" y="182" width="10" height="11" fill="#DA291C" />
<rect x="347" y="182" width="17" height="11" fill="#DA291C" />
<rect x="374" y="182" width="38" height="11" fill="#DA291C" />
<rect x="41" y="183" width="44" height="10" fill="#DA291C" />
</svg>