<?xml version="1.0" encoding="UTF-8" ?>
<svg version="1.1" width="397" height="193" xmlns="http://www.w3.org/2000/svg" shape-rendering="crispEdges">
<rect x="47" y="0" width="64" height="18" fill="#DA291C" />
<rect x="127" y="0" width="64" height="23" fill="#DA291C" />
<rect x="207" y="0" width="64" height="18" fill="#DA291C" />
<rect x="287" y="0" width="64" height="18" fill="#DA291C" />
<rect x="47" y="18" width="22" height="84" fill="#DA291C" />
<rect x="88" y="18" width="23" height="37" fill="#DA291C" />
<rect x="207" y="18" width="22" height="84" fill="#DA291C" />
<rect x="248" y="18" width="23" height="84" fill="#DA291C" />
<rect x="287" y="18" width="18" height="43" fill="#DA291C" />
<rect x="333" y="18" width="18" height="8" fill="#DA291C" />
<rect x="127" y="23" width="23" height="79" fill="#DA291C" />
<rect x="168" y="23" width="23" height="14" fill="#DA291C" />
<rect x="69" y="37" width="19" height="18" fill="#DA291C" />
<rect x="305" y="41" width="46" height="20" fill="#DA291C" />
<rect x="76" y="55" width="22" height="47" fill="#DA291C" />
<rect x="333" y="61" width="18" height="41" fill="#DA291C" />
<rect x="168" y="66" width="23" height="36" fill="#DA291C" />
<rect x="287" y="76" width="18" height="26" fill="#DA291C" />
<rect x="150" y="79" width="18" height="23" fill="#DA291C" />
<rect x="98" y="80" width="13" height="22" fill="#DA291C" />
<rect x="229" y="84" width="19" height="18" fill="#DA291C" />
<rect x="305" y="84" width="28" height="18" fill="#DA291C" />
<rect x="1" y="112" width="396" height="10" fill="#DA291C" />
<rect x="1" y="122" width="12" height="71" fill="#DA291C" />
<rect x="57" y="122" width="13" height="71" fill="#DA291C" />
<rect x="112" y="122" width="32" height="71" fill="#DA291C" />
<rect x="156" y="122" width="20" height="17" fill="#DA291C" />
<rect x="188" y="122" width="10" height="71" fill="#DA291C" />
<rect x="240" y="122" width="10" height="71" fill="#DA291C" />
<rect x="290" y="122" width="11" height="71" fill="#DA291C" />
<rect x="336" y="122" width="10" height="71" fill="#DA291C" />
<rect x="384" y="122" width="13" height="71" fill="#DA291C" />
<rect x="311" y="129" width="15" height="15" fill="#DA291C" />
<rect x="355" y="130" width="20" height="17" fill="#DA291C" />
<rect x="26" y="132" width="18" height="22" fill="#DA291C" />
<rect x="262" y="133" width="16" height="26" fill="#DA291C" />
<rect x="82" y="134" width="18" height="36" fill="#DA291C" />
<rect x="210" y="134" width="30" height="12" fill="#DA291C" />
<rect x="375" y="135" width="9" height="12" fill="#DA291C" />
<rect x="13" y="144" width="13" height="10" fill="#DA291C" />
<rect x="144" y="151" width="16" height="42" fill="#DA291C" />
<rect x="172" y="151" width="16" height="42" fill="#DA291C" />
<rect x="311" y="152" width="8" height="41" fill="#DA291C" />
<rect x="329" y="152" width="7" height="20" fill="#DA291C" />
<rect x="346" y="156" width="30" height="13" fill="#DA291C" />
<rect x="210" y="158" width="30" height="12" fill="#DA291C" />
<rect x="26" y="164" width="31" height="9" fill="#DA291C" />
<rect x="355" y="169" width="21" height="5" fill="#DA291C" />
<rect x="262" y="170" width="16" height="23" fill="#DA291C" />
<rect x="70" y="182" width="42" height="11" fill="#DA291C" />
<rect x="160" y="182" width="12" height="11" fill="#DA291C" />
<rect x="198" y="182" width="42" height="11" fill="#DA291C" />
<rect x="250" y="182" width="12" height="11" fill="#DA291C" />
<rect x="278" y="182" width="12" height="11" fill="#DA291C" />
<rect x="301" y="182" width="10" height="11" fill="#DA291C" />
<rect x="319" y="182" width="17" height="11" fill="#DA291C" />
<rect x="346" y="182" width="38" height="11" fill="#DA291C" />
<rect x="13" y="183" width="44" height="10" fill="#DA291C" />
</svg>