<?xml version="1.0" encoding="UTF-8" ?>
<svg version="1.1" width="438" height="193" xmlns="http://www.w3.org/2000/svg" shape-rendering="crispEdges">
<rect x="67" y="0" width="64" height="2" fill="#DA291C" />
<rect x="147" y="0" width="64" height="2" fill="#DA291C" />
<rect x="227" y="0" width="64" height="2" fill="#DA291C" />
<rect x="307" y="0" width="64" height="2" fill="#DA291C" />
<rect x="67" y="2" width="2" height="100" fill="#DA291C" />
<rect x="129" y="2" width="2" height="53" fill="#DA291C" />
<rect x="147" y="2" width="2" height="100" fill="#DA291C" />
<rect x="209" y="2" width="2" height="35" fill="#DA291C" />
<rect x="227" y="2" width="2" height="100" fill="#DA291C" />
<rect x="289" y="2" width="2" height="100" fill="#DA291C" />
<rect x="307" y="2" width="2" height="59" fill="#DA291C" />
<rect x="369" y="2" width="2" height="24" fill="#DA291C" />
<rect x="87" y="16" width="23" height="2" fill="#DA291C" />
<rect x="247" y="16" width="23" height="2" fill="#DA291C" />
<rect x="323" y="16" width="32" height="2" fill="#DA291C" />
<rect x="87" y="18" width="2" height="21" fill="#DA291C" />
<rect x="108" y="18" width="2" height="21" fill="#DA291C" />
<rect x="247" y="18" width="2" height="68" fill="#DA291C" />
<rect x="268" y="18" width="2" height="68" fill="#DA291C" />
<rect x="323" y="18" width="2" height="25" fill="#DA291C" />
<rect x="353" y="18" width="2" height="8" fill="#DA291C" />
<rect x="168" y="21" width="22" height="2" fill="#DA291C" />
<rect x="168" y="23" width="2" height="58" fill="#DA291C" />
<rect x="188" y="23" width="2" height="14" fill="#DA291C" />
<rect x="355" y="24" width="14" height="2" fill="#DA291C" />
<rect x="190" y="35" width="19" height="2" fill="#DA291C" />
<rect x="89" y="37" width="19" height="2" fill="#DA291C" />
<rect x="325" y="41" width="46" height="2" fill="#DA291C" />
<rect x="369" y="43" width="2" height="59" fill="#DA291C" />
<rect x="87" y="53" width="11" height="2" fill="#DA291C" />
<rect x="116" y="53" width="13" height="2" fill="#DA291C" />
<rect x="87" y="55" width="2" height="47" fill="#DA291C" />
<rect x="96" y="55" width="2" height="47" fill="#DA291C" />
<rect x="116" y="55" width="2" height="27" fill="#DA291C" />
<rect x="309" y="59" width="46" height="2" fill="#DA291C" />
<rect x="353" y="61" width="2" height="25" fill="#DA291C" />
<rect x="188" y="66" width="23" height="2" fill="#DA291C" />
<rect x="188" y="68" width="2" height="13" fill="#DA291C" />
<rect x="209" y="68" width="2" height="34" fill="#DA291C" />
<rect x="307" y="76" width="18" height="2" fill="#DA291C" />
<rect x="307" y="78" width="2" height="24" fill="#DA291C" />
<rect x="323" y="78" width="2" height="8" fill="#DA291C" />
<rect x="170" y="79" width="18" height="2" fill="#DA291C" />
<rect x="118" y="80" width="13" height="2" fill="#DA291C" />
<rect x="129" y="82" width="2" height="20" fill="#DA291C" />
<rect x="249" y="84" width="19" height="2" fill="#DA291C" />
<rect x="325" y="84" width="28" height="2" fill="#DA291C" />
<rect x="69" y="100" width="18" height="2" fill="#DA291C" />
<rect x="98" y="100" width="31" height="2" fill="#DA291C" />
<rect x="149" y="100" width="60" height="2" fill="#DA291C" />
<rect x="229" y="100" width="60" height="2" fill="#DA291C" />
<rect x="309" y="100" width="60" height="2" fill="#DA291C" />
<rect x="19" y="112" width="400" height="2" fill="#DA291C" />
<rect x="16" y="113" width="3" height="2" fill="#DA291C" />
<rect x="419" y="113" width="3" height="2" fill="#DA291C" />
<rect x="13" y="114" width="3" height="2" fill="#DA291C" />
<rect x="19" y="114" width="1" height="1" fill="#DA291C" />
<rect x="418" y="114" width="1" height="1" fill="#DA291C" />
<rect x="422" y="114" width="3" height="2" fill="#DA291C" />
<rect x="12" y="115" width="1" height="3" fill="#DA291C" />
<rect x="16" y="115" width="1" height="1" fill="#DA291C" />
<rect x="421" y="115" width="1" height="1" fill="#DA291C" />
<rect x="425" y="115" width="1" height="3" fill="#DA291C" />
<rect x="9" y="116" width="3" height="2" fill="#DA291C" />
<rect x="13" y="116" width="1" height="1" fill="#DA291C" />
<rect x="424" y="116" width="1" height="1" fill="#DA291C" />
<rect x="426" y="116" width="3" height="2" fill="#DA291C" />
<rect x="8" y="117" width="1" height="3" fill="#DA291C" />
<rect x="429" y="117" width="1" height="3" fill="#DA291C" />
<rect x="7" y="118" width="1" height="4" fill="#DA291C" />
<rect x="9" y="118" width="2" height="1" fill="#DA291C" />
<rect x="427" y="118" width="2" height="1" fill="#DA291C" />
<rect x="430" y="118" width="1" height="4" fill="#DA291C" />
<rect x="6" y="119" width="1" height="4" fill="#DA291C" />
<rect x="431" y="119" width="1" height="4" fill="#DA291C" />
<rect x="5" y="120" width="1" height="5" fill="#DA291C" />
<rect x="31" y="120" width="48" height="2" fill="#DA291C" />
<rect x="88" y="120" width="46" height="2" fill="#DA291C" />
<rect x="162" y="120" width="16" height="2" fill="#DA291C" />
<rect x="194" y="120" width="16" height="2" fill="#DA291C" />
<rect x="216" y="120" width="46" height="2" fill="#DA291C" />
<rect x="268" y="120" width="44" height="2" fill="#DA291C" />
<rect x="319" y="120" width="39" height="2" fill="#DA291C" />
<rect x="364" y="120" width="42" height="2" fill="#DA291C" />
<rect x="432" y="120" width="1" height="5" fill="#DA291C" />
<rect x="4" y="122" width="1" height="4" fill="#DA291C" />
<rect x="31" y="122" width="2" height="24" fill="#DA291C" />
<rect x="77" y="122" width="2" height="44" fill="#DA291C" />
<rect x="88" y="122" width="2" height="62" fill="#DA291C" />
<rect x="132" y="122" width="2" height="62" fill="#DA291C" />
<rect x="162" y="122" width="2" height="31" fill="#DA291C" />
<rect x="176" y="122" width="2" height="17" fill="#DA291C" />
<rect x="194" y="122" width="2" height="17" fill="#DA291C" />
<rect x="208" y="122" width="2" height="31" fill="#DA291C" />
<rect x="216" y="122" width="2" height="62" fill="#DA291C" />
<rect x="260" y="122" width="2" height="14" fill="#DA291C" />
<rect x="268" y="122" width="2" height="62" fill="#DA291C" />
<rect x="310" y="122" width="2" height="62" fill="#DA291C" />
<rect x="319" y="122" width="2" height="62" fill="#DA291C" />
<rect x="356" y="122" width="2" height="32" fill="#DA291C" />
<rect x="364" y="122" width="2" height="36" fill="#DA291C" />
<rect x="404" y="122" width="2" height="15" fill="#DA291C" />
<rect x="433" y="122" width="1" height="4" fill="#DA291C" />
<rect x="3" y="124" width="1" height="5" fill="#DA291C" />
<rect x="434" y="124" width="1" height="5" fill="#DA291C" />
<rect x="2" y="125" width="1" height="7" fill="#DA291C" />
<rect x="435" y="125" width="1" height="7" fill="#DA291C" />
<rect x="1" y="128" width="1" height="49" fill="#DA291C" />
<rect x="436" y="128" width="1" height="49" fill="#DA291C" />
<rect x="331" y="129" width="15" height="2" fill="#DA291C" />
<rect x="375" y="130" width="20" height="2" fill="#DA291C" />
<rect x="0" y="131" width="1" height="43" fill="#DA291C" />
<rect x="331" y="131" width="2" height="13" fill="#DA291C" />
<rect x="344" y="131" width="2" height="13" fill="#DA291C" />
<rect x="437" y="131" width="1" height="43" fill="#DA291C" />
<rect x="46" y="132" width="18" height="2" fill="#DA291C" />
<rect x="375" y="132" width="2" height="15" fill="#DA291C" />
<rect x="393" y="132" width="2" height="5" fill="#DA291C" />
<rect x="282" y="133" width="16" height="2" fill="#DA291C" />
<rect x="46" y="134" width="2" height="12" fill="#DA291C" />
<rect x="62" y="134" width="2" height="20" fill="#DA291C" />
<rect x="102" y="134" width="18" height="2" fill="#DA291C" />
<rect x="230" y="134" width="30" height="2" fill="#DA291C" />
<rect x="282" y="135" width="2" height="24" fill="#DA291C" />
<rect x="296" y="135" width="2" height="24" fill="#DA291C" />
<rect x="395" y="135" width="9" height="2" fill="#DA291C" />
<rect x="102" y="136" width="2" height="34" fill="#DA291C" />
<rect x="118" y="136" width="2" height="34" fill="#DA291C" />
<rect x="230" y="136" width="2" height="10" fill="#DA291C" />
<rect x="178" y="137" width="16" height="2" fill="#DA291C" />
<rect x="333" y="142" width="11" height="2" fill="#DA291C" />
<rect x="33" y="144" width="13" height="2" fill="#DA291C" />
<rect x="232" y="144" width="30" height="2" fill="#DA291C" />
<rect x="377" y="145" width="29" height="2" fill="#DA291C" />
<rect x="260" y="146" width="2" height="14" fill="#DA291C" />
<rect x="404" y="147" width="2" height="37" fill="#DA291C" />
<rect x="164" y="151" width="16" height="2" fill="#DA291C" />
<rect x="192" y="151" width="16" height="2" fill="#DA291C" />
<rect x="31" y="152" width="31" height="2" fill="#DA291C" />
<rect x="331" y="152" width="8" height="2" fill="#DA291C" />
<rect x="349" y="152" width="7" height="2" fill="#DA291C" />
<rect x="178" y="153" width="2" height="31" fill="#DA291C" />
<rect x="192" y="153" width="2" height="31" fill="#DA291C" />
<rect x="31" y="154" width="2" height="31" fill="#DA291C" />
<rect x="331" y="154" width="2" height="30" fill="#DA291C" />
<rect x="337" y="154" width="2" height="30" fill="#DA291C" />
<rect x="349" y="154" width="2" height="18" fill="#DA291C" />
<rect x="366" y="156" width="30" height="2" fill="#DA291C" />
<rect x="284" y="157" width="12" height="2" fill="#DA291C" />
<rect x="230" y="158" width="30" height="2" fill="#DA291C" />
<rect x="394" y="158" width="2" height="16" fill="#DA291C" />
<rect x="230" y="160" width="2" height="10" fill="#DA291C" />
<rect x="46" y="164" width="31" height="2" fill="#DA291C" />
<rect x="46" y="166" width="2" height="7" fill="#DA291C" />
<rect x="364" y="167" width="13" height="2" fill="#DA291C" />
<rect x="104" y="168" width="14" height="2" fill="#DA291C" />
<rect x="232" y="168" width="30" height="2" fill="#DA291C" />
<rect x="364" y="169" width="2" height="15" fill="#DA291C" />
<rect x="375" y="169" width="2" height="5" fill="#DA291C" />
<rect x="260" y="170" width="2" height="14" fill="#DA291C" />
<rect x="282" y="170" width="16" height="2" fill="#DA291C" />
<rect x="351" y="170" width="7" height="2" fill="#DA291C" />
<rect x="48" y="171" width="31" height="2" fill="#DA291C" />
<rect x="282" y="172" width="2" height="12" fill="#DA291C" />
<rect x="296" y="172" width="2" height="12" fill="#DA291C" />
<rect x="356" y="172" width="2" height="12" fill="#DA291C" />
<rect x="377" y="172" width="17" height="2" fill="#DA291C" />
<rect x="2" y="173" width="1" height="7" fill="#DA291C" />
<rect x="77" y="173" width="2" height="12" fill="#DA291C" />
<rect x="435" y="173" width="1" height="7" fill="#DA291C" />
<rect x="3" y="176" width="1" height="5" fill="#DA291C" />
<rect x="434" y="176" width="1" height="5" fill="#DA291C" />
<rect x="4" y="179" width="1" height="4" fill="#DA291C" />
<rect x="433" y="179" width="1" height="4" fill="#DA291C" />
<rect x="5" y="180" width="1" height="5" fill="#DA291C" />
<rect x="432" y="180" width="1" height="5" fill="#DA291C" />
<rect x="6" y="182" width="1" height="4" fill="#DA291C" />
<rect x="90" y="182" width="42" height="2" fill="#DA291C" />
<rect x="180" y="182" width="12" height="2" fill="#DA291C" />
<rect x="218" y="182" width="42" height="2" fill="#DA291C" />
<rect x="270" y="182" width="12" height="2" fill="#DA291C" />
<rect x="298" y="182" width="12" height="2" fill="#DA291C" />
<rect x="321" y="182" width="10" height="2" fill="#DA291C" />
<rect x="339" y="182" width="17" height="2" fill="#DA291C" />
<rect x="366" y="182" width="38" height="2" fill="#DA291C" />
<rect x="431" y="182" width="1" height="4" fill="#DA291C" />
<rect x="7" y="183" width="1" height="4" fill="#DA291C" />
<rect x="33" y="183" width="44" height="2" fill="#DA291C" />
<rect x="430" y="183" width="1" height="4" fill="#DA291C" />
<rect x="8" y="185" width="1" height="3" fill="#DA291C" />
<rect x="429" y="185" width="1" height="3" fill="#DA291C" />
<rect x="9" y="186" width="2" height="3" fill="#DA291C" />
<rect x="427" y="186" width="2" height="3" fill="#DA291C" />
<rect x="11" y="187" width="2" height="2" fill="#DA291C" />
<rect x="425" y="187" width="2" height="2" fill="#DA291C" />
<rect x="13" y="188" width="1" height="3" fill="#DA291C" />
<rect x="424" y="188" width="1" height="3" fill="#DA291C" />
<rect x="12" y="189" width="1" height="1" fill="#DA291C" />
<rect x="14" y="189" width="3" height="2" fill="#DA291C" />
<rect x="421" y="189" width="3" height="2" fill="#DA291C" />
<rect x="425" y="189" width="1" height="1" fill="#DA291C" />
<rect x="17" y="190" width="3" height="2" fill="#DA291C" />
<rect x="418" y="190" width="3" height="2" fill="#DA291C" />
<rect x="16" y="191" width="1" height="1" fill="#DA291C" />
<rect x="20" y="191" width="398" height="2" fill="#DA291C" />
<rect x="421" y="191" width="1" height="1" fill="#DA291C" />
<rect x="19" y="192" width="1" height="1" fill="#DA291C" />
<rect x="418" y="192" width="1" height="1" fill="#DA291C" />
</svg>