<?xml version="1.0" encoding="UTF-8" ?>
<svg version="1.1" width="397" height="193" xmlns="http://www.w3.org/2000/svg" shape-rendering="crispEdges">
<rect x="42" y="0" width="64" height="18" fill="#DA291C" />
<rect x="122" y="0" width="64" height="23" fill="#DA291C" />
<rect x="202" y="0" width="64" height="18" fill="#DA291C" />
<rect x="282" y="0" width="64" height="18" fill="#DA291C" />
<rect x="42" y="18" width="22" height="84" fill="#DA291C" />
<rect x="83" y="18" width="23" height="37" fill="#DA291C" />
<rect x="202" y="18" width="22" height="84" fill="#DA291C" />
<rect x="243" y="18" width="23" height="84" fill="#DA291C" />
<rect x="282" y="18" width="18" height="43" fill="#DA291C" />
<rect x="328" y="18" width="18" height="8" fill="#DA291C" />
<rect x="122" y="23" width="23" height="79" fill="#DA291C" />
<rect x="163" y="23" width="23" height="14" fill="#DA291C" />
<rect x="64" y="37" width="19" height="18" fill="#DA291C" />
<rect x="300" y="41" width="46" height="20" fill="#DA291C" />
<rect x="71" y="55" width="22" height="47" fill="#DA291C" />
<rect x="328" y="61" width="18" height="41" fill="#DA291C" />
<rect x="163" y="66" width="23" height="36" fill="#DA291C" />
<rect x="282" y="76" width="18" height="26" fill="#DA291C" />
<rect x="145" y="79" width="18" height="23" fill="#DA291C" />
<rect x="93" y="80" width="13" height="22" fill="#DA291C" />
<rect x="224" y="84" width="19" height="18" fill="#DA291C" />
<rect x="300" y="84" width="28" height="18" fill="#DA291C" />
<rect x="1" y="112" width="396" height="2" fill="#DA291C" />
<rect x="1" y="114" width="2" height="79" fill="#DA291C" />
<rect x="395" y="114" width="2" height="79" fill="#DA291C" />
<rect x="11" y="120" width="48" height="14" fill="#DA291C" />
<rect x="68" y="120" width="46" height="16" fill="#DA291C" />
<rect x="142" y="120" width="16" height="33" fill="#DA291C" />
<rect x="174" y="120" width="16" height="33" fill="#DA291C" />
<rect x="196" y="120" width="46" height="16" fill="#DA291C" />
<rect x="248" y="120" width="44" height="15" fill="#DA291C" />
<rect x="299" y="120" width="39" height="11" fill="#DA291C" />
<rect x="344" y="120" width="42" height="12" fill="#DA291C" />
<rect x="299" y="131" width="14" height="53" fill="#DA291C" />
<rect x="324" y="131" width="14" height="23" fill="#DA291C" />
<rect x="344" y="132" width="13" height="26" fill="#DA291C" />
<rect x="373" y="132" width="13" height="5" fill="#DA291C" />
<rect x="11" y="134" width="17" height="12" fill="#DA291C" />
<rect x="42" y="134" width="17" height="32" fill="#DA291C" />
<rect x="248" y="135" width="16" height="49" fill="#DA291C" />
<rect x="276" y="135" width="16" height="49" fill="#DA291C" />
<rect x="68" y="136" width="16" height="48" fill="#DA291C" />
<rect x="98" y="136" width="16" height="48" fill="#DA291C" />
<rect x="196" y="136" width="16" height="48" fill="#DA291C" />
<rect x="158" y="137" width="16" height="47" fill="#DA291C" />
<rect x="313" y="142" width="11" height="12" fill="#DA291C" />
<rect x="212" y="144" width="30" height="16" fill="#DA291C" />
<rect x="357" y="145" width="29" height="13" fill="#DA291C" />
<rect x="11" y="152" width="31" height="14" fill="#DA291C" />
<rect x="317" y="154" width="14" height="30" fill="#DA291C" />
<rect x="264" y="157" width="12" height="15" fill="#DA291C" />
<rect x="374" y="158" width="12" height="26" fill="#DA291C" />
<rect x="11" y="166" width="17" height="19" fill="#DA291C" />
<rect x="344" y="167" width="13" height="17" fill="#DA291C" />
<rect x="84" y="168" width="14" height="16" fill="#DA291C" />
<rect x="212" y="168" width="30" height="16" fill="#DA291C" />
<rect x="331" y="170" width="7" height="14" fill="#DA291C" />
<rect x="28" y="171" width="31" height="14" fill="#DA291C" />
<rect x="357" y="172" width="17" height="12" fill="#DA291C" />
<rect x="3" y="191" width="392" height="2" fill="#DA291C" />
</svg>