<?xml version="1.0" encoding="UTF-8" ?>
<svg version="1.1" width="438" height="193" xmlns="http://www.w3.org/2000/svg" shape-rendering="crispEdges">
<rect x="67" y="0" width="64" height="18" fill="#DA291C" />
<rect x="147" y="0" width="64" height="23" fill="#DA291C" />
<rect x="227" y="0" width="64" height="18" fill="#DA291C" />
<rect x="307" y="0" width="64" height="18" fill="#DA291C" />
<rect x="67" y="18" width="22" height="84" fill="#DA291C" />
<rect x="108" y="18" width="23" height="37" fill="#DA291C" />
<rect x="227" y="18" width="22" height="84" fill="#DA291C" />
<rect x="268" y="18" width="23" height="84" fill="#DA291C" />
<rect x="307" y="18" width="18" height="43" fill="#DA291C" />
<rect x="353" y="18" width="18" height="8" fill="#DA291C" />
<rect x="147" y="23" width="23" height="79" fill="#DA291C" />
<rect x="188" y="23" width="23" height="14" fill="#DA291C" />
<rect x="89" y="37" width="19" height="18" fill="#DA291C" />
<rect x="325" y="41" width="46" height="20" fill="#DA291C" />
<rect x="96" y="55" width="22" height="47" fill="#DA291C" />
<rect x="353" y="61" width="18" height="41" fill="#DA291C" />
<rect x="188" y="66" width="23" height="36" fill="#DA291C" />
<rect x="307" y="76" width="18" height="26" fill="#DA291C" />
<rect x="170" y="79" width="18" height="23" fill="#DA291C" />
<rect x="118" y="80" width="13" height="22" fill="#DA291C" />
<rect x="249" y="84" width="19" height="18" fill="#DA291C" />
<rect x="325" y="84" width="28" height="18" fill="#DA291C" />
<rect x="19" y="112" width="400" height="10" fill="#DA291C" />
<rect x="16" y="113" width="3" height="79" fill="#DA291C" />
<rect x="419" y="113" width="3" height="79" fill="#DA291C" />
<rect x="13" y="114" width="3" height="77" fill="#DA291C" />
<rect x="422" y="114" width="3" height="77" fill="#DA291C" />
<rect x="12" y="115" width="1" height="75" fill="#DA291C" />
<rect x="425" y="115" width="1" height="75" fill="#DA291C" />
<rect x="9" y="116" width="3" height="73" fill="#DA291C" />
<rect x="426" y="116" width="3" height="73" fill="#DA291C" />
<rect x="8" y="117" width="1" height="71" fill="#DA291C" />
<rect x="429" y="117" width="1" height="71" fill="#DA291C" />
<rect x="7" y="118" width="1" height="69" fill="#DA291C" />
<rect x="430" y="118" width="1" height="69" fill="#DA291C" />
<rect x="6" y="119" width="1" height="67" fill="#DA291C" />
<rect x="431" y="119" width="1" height="67" fill="#DA291C" />
<rect x="5" y="120" width="1" height="65" fill="#DA291C" />
<rect x="432" y="120" width="1" height="65" fill="#DA291C" />
<rect x="4" y="122" width="1" height="61" fill="#DA291C" />
<rect x="19" y="122" width="14" height="71" fill="#DA291C" />
<rect x="77" y="122" width="13" height="71" fill="#DA291C" />
<rect x="132" y="122" width="32" height="71" fill="#DA291C" />
<rect x="176" y="122" width="20" height="17" fill="#DA291C" />
<rect x="208" y="122" width="10" height="71" fill="#DA291C" />
<rect x="260" y="122" width="10" height="71" fill="#DA291C" />
<rect x="310" y="122" width="11" height="71" fill="#DA291C" />
<rect x="356" y="122" width="10" height="71" fill="#DA291C" />
<rect x="404" y="122" width="15" height="71" fill="#DA291C" />
<rect x="433" y="122" width="1" height="61" fill="#DA291C" />
<rect x="3" y="124" width="1" height="57" fill="#DA291C" />
<rect x="434" y="124" width="1" height="57" fill="#DA291C" />
<rect x="2" y="125" width="1" height="55" fill="#DA291C" />
<rect x="435" y="125" width="1" height="55" fill="#DA291C" />
<rect x="1" y="128" width="1" height="49" fill="#DA291C" />
<rect x="436" y="128" width="1" height="49" fill="#DA291C" />
<rect x="331" y="129" width="15" height="15" fill="#DA291C" />
<rect x="375" y="130" width="20" height="17" fill="#DA291C" />
<rect x="0" y="131" width="1" height="43" fill="#DA291C" />
<rect x="437" y="131" width="1" height="43" fill="#DA291C" />
<rect x="46" y="132" width="18" height="22" fill="#DA291C" />
<rect x="282" y="133" width="16" height="26" fill="#DA291C" />
<rect x="102" y="134" width="18" height="36" fill="#DA291C" />
<rect x="230" y="134" width="30" height="12" fill="#DA291C" />
<rect x="395" y="135" width="9" height="12" fill="#DA291C" />
<rect x="33" y="144" width="13" height="10" fill="#DA291C" />
<rect x="164" y="151" width="16" height="42" fill="#DA291C" />
<rect x="192" y="151" width="16" height="42" fill="#DA291C" />
<rect x="331" y="152" width="8" height="41" fill="#DA291C" />
<rect x="349" y="152" width="7" height="20" fill="#DA291C" />
<rect x="366" y="156" width="30" height="13" fill="#DA291C" />
<rect x="230" y="158" width="30" height="12" fill="#DA291C" />
<rect x="46" y="164" width="31" height="9" fill="#DA291C" />
<rect x="375" y="169" width="21" height="5" fill="#DA291C" />
<rect x="282" y="170" width="16" height="23" fill="#DA291C" />
<rect x="90" y="182" width="42" height="11" fill="#DA291C" />
<rect x="180" y="182" width="12" height="11" fill="#DA291C" />
<rect x="218" y="182" width="42" height="11" fill="#DA291C" />
<rect x="270" y="182" width="12" height="11" fill="#DA291C" />
<rect x="298" y="182" width="12" height="11" fill="#DA291C" />
<rect x="321" y="182" width="10" height="11" fill="#DA291C" />
<rect x="339" y="182" width="17" height="11" fill="#DA291C" />
<rect x="366" y="182" width="38" height="11" fill="#DA291C" />
<rect x="33" y="183" width="44" height="10" fill="#DA291C" />
</svg>